<?xml version="1.0" encoding="UTF-8" standalone="no"?>
<svg
   xmlns:dc="http://purl.org/dc/elements/1.1/"
   xmlns:cc="http://creativecommons.org/ns#"
   xmlns:rdf="http://www.w3.org/1999/02/22-rdf-syntax-ns#"
   xmlns:svg="http://www.w3.org/2000/svg"
   xmlns="http://www.w3.org/2000/svg"
   xmlns:sodipodi="http://sodipodi.sourceforge.net/DTD/sodipodi-0.dtd"
   xmlns:inkscape="http://www.inkscape.org/namespaces/inkscape"
   class="iconic iconic-cogs"
   width="128"
   height="128"
   viewBox="0 0 128 128"
   id="svg4580"
   version="1.1"
   inkscape:version="0.48.5 r10040"
   sodipodi:docname="cogs.svg">
  <metadata
     id="metadata4608">
    <rdf:RDF>
      <cc:Work
         rdf:about="">
        <dc:format>image/svg+xml</dc:format>
        <dc:type
           rdf:resource="http://purl.org/dc/dcmitype/StillImage" />
      </cc:Work>
    </rdf:RDF>
  </metadata>
  <defs
     id="defs4606" />
  <sodipodi:namedview
     pagecolor="#ffffff"
     bordercolor="#666666"
     borderopacity="1"
     objecttolerance="10"
     gridtolerance="10"
     guidetolerance="10"
     inkscape:pageopacity="0"
     inkscape:pageshadow="2"
     inkscape:window-width="1918"
     inkscape:window-height="974"
     id="namedview4604"
     showgrid="false"
     inkscape:zoom="3.6875"
     inkscape:cx="53.845437"
     inkscape:cy="55.749906"
     inkscape:window-x="-4"
     inkscape:window-y="-4"
     inkscape:window-maximized="1"
     inkscape:current-layer="svg4580" />
  <g
     class="iconic-metadata"
     id="g4582">
    <title
       id="title4584">Cogs</title>
  </g>
  <g
     class="iconic-cogs-lg iconic-container iconic-lg"
     data-width="128"
     data-height="128"
     display="inline"
     id="g4586"
     style="stroke:#3c555a;stroke-opacity:1;display:inline"
     transform="matrix(0.98528446,0,0,0.98528446,1.077388,1.0774048)">
    <path
       d="m 77.894,47.412 c 0.371,-2.912 0.381,-5.888 -0.001,-8.865 l 8.074,-6.044 -5.195,-12.542 -9.974,1.484 C 68.96,19.072 66.847,16.977 64.524,15.183 L 65.96,5.195 53.418,0 47.412,8.106 C 44.5,7.735 41.524,7.725 38.547,8.107 l -6.044,-8.074 -12.542,5.195 1.484,9.974 c -2.373,1.838 -4.468,3.951 -6.262,6.274 L 5.195,20.04 0,32.582 8.106,38.588 C 7.735,41.5 7.725,44.476 8.107,47.453 l -8.074,6.044 5.195,12.542 9.974,-1.484 c 1.838,2.373 3.951,4.468 6.274,6.262 L 20.04,80.805 32.582,86 38.588,77.894 c 2.912,0.371 5.888,0.381 8.865,-0.001 l 6.044,8.074 12.542,-5.195 -1.484,-9.974 c 2.373,-1.838 4.468,-3.951 6.262,-6.274 L 80.805,65.961 86,53.419 77.894,47.413 z M 51.887,64.455 C 40.038,69.363 26.453,63.736 21.545,51.887 16.637,40.038 22.264,26.453 34.113,21.545 45.962,16.637 59.547,22.264 64.455,34.113 69.363,45.962 63.736,59.547 51.887,64.455 z"
       class="iconic-cogs-cog iconic-cogs-cog-large iconic-property-fill"
       id="path4588"
       style="stroke:#3c555a;stroke-opacity:1"
       inkscape:connector-curvature="0" />
    <path
       d="M 128,100.938 V 91 l -7.162,-1.79 c -0.578,-2.12 -1.421,-4.129 -2.489,-5.993 l 3.769,-6.353 -7.027,-7.027 -6.333,3.8 c -1.865,-1.067 -3.875,-1.907 -5.996,-2.483 L 100.936,64 h -9.938 l -1.79,7.162 c -2.119,0.578 -4.129,1.421 -5.993,2.489 l -6.353,-3.769 -7.027,7.027 3.8,6.333 c -1.067,1.865 -1.907,3.875 -2.483,5.996 l -7.154,1.826 v 9.938 l 7.162,1.79 c 0.578,2.119 1.421,4.129 2.489,5.993 l -3.769,6.353 7.027,7.027 6.333,-3.8 c 1.865,1.067 3.875,1.907 5.996,2.483 l 1.826,7.154 H 101 l 1.79,-7.162 c 2.119,-0.578 4.129,-1.421 5.993,-2.489 l 6.353,3.77 7.027,-7.027 -3.8,-6.333 c 1.067,-1.865 1.907,-3.875 2.483,-5.996 L 128,100.939 z M 96,113 c -9.389,0 -17,-7.611 -17,-17 0,-9.389 7.611,-17 17,-17 9.389,0 17,7.611 17,17 0,9.389 -7.611,17 -17,17 z"
       class="iconic-cogs-cog iconic-cogs-cog-small iconic-property-accent iconic-property-fill"
       id="path4590"
       style="stroke:#3c555a;stroke-opacity:1"
       inkscape:connector-curvature="0" />
  </g>
  <g
     class="iconic-cogs-md iconic-container iconic-md"
     data-width="32"
     data-height="32"
     display="none"
     transform="scale(4)"
     id="g4592">
    <path
       d="M19.212 11.75c.088-.7.087-1.413-.003-2.128l2.161-1.892-1.044-2.521-2.862.203c-.442-.569-.947-1.073-1.504-1.505l.19-2.863-2.521-1.044-1.879 2.166c-.7-.088-1.413-.087-2.128.003l-1.892-2.161-2.521 1.044.203 2.862c-.569.442-1.073.947-1.505 1.504l-2.863-.19-1.044 2.521 2.166 1.879c-.088.699-.087 1.413.003 2.128l-2.161 1.892 1.044 2.521 2.862-.203c.442.569.947 1.073 1.504 1.505l-.19 2.863 2.521 1.044 1.879-2.166c.7.088 1.413.087 2.128-.003l1.892 2.161 2.521-1.044-.203-2.862c.569-.442 1.073-.947 1.505-1.504l2.863.19 1.044-2.521-2.166-1.879zm-6.681 3.385c-2.456 1.017-5.271-.149-6.288-2.604-1.017-2.456.149-5.271 2.605-6.288 2.455-1.017 5.271.149 6.288 2.604 1.017 2.455-.149 5.271-2.605 6.288z"
       class="iconic-cogs-cog iconic-cogs-cog-large iconic-property-fill"
       id="path4594" />
    <path
       d="M32 24.984v-1.984l-1.98-.66c-.139-.505-.338-.985-.592-1.43l.924-1.871-1.403-1.403-1.865.932c-.446-.254-.925-.452-1.431-.59l-.67-1.979h-1.984l-.66 1.98c-.505.139-.985.338-1.43.592l-1.871-.925-1.403 1.403.932 1.865c-.254.446-.452.925-.59 1.431l-1.978.67v1.984l1.98.66c.139.505.338.985.592 1.43l-.924 1.871 1.403 1.403 1.865-.932c.446.254.925.452 1.431.59l.67 1.978h1.984l.66-1.98c.505-.139.985-.338 1.43-.592l1.871.925 1.403-1.403-.932-1.865c.254-.446.452-.925.59-1.431l1.979-.67zm-8 2.516c-1.933 0-3.5-1.567-3.5-3.5s1.567-3.5 3.5-3.5 3.5 1.567 3.5 3.5-1.567 3.5-3.5 3.5z"
       class="iconic-cogs-cog iconic-cogs-cog-small iconic-property-accent iconic-property-fill"
       id="path4596" />
  </g>
  <g
     class="iconic-cogs-sm iconic-container iconic-sm"
     data-width="16"
     data-height="16"
     display="none"
     transform="scale(8)"
     id="g4598">
    <path
       d="M8.984 5.283c.014-.19.011-.379-.002-.571l.002.005.921-1.076-.48-1.158-1.408-.1.002.005c-.126-.146-.259-.281-.402-.406l-.033-1.47-1.238-.513-1.063 1.016c-.19-.014-.379-.012-.571.002l.005-.002-1.076-.921-1.158.48-.1 1.408.005-.002c-.146.126-.281.259-.406.402l-1.47.033-.513 1.237 1.016 1.063c-.014.19-.012.379.002.571l-.002-.005-.921 1.076.479 1.158 1.408.1-.002-.005c.126.146.259.281.402.406l.033 1.47 1.237.513 1.063-1.016c.19.014.379.012.571-.002l-.005.002 1.076.921 1.158-.479.1-1.408-.005.002c.146-.126.281-.259.406-.402l1.47-.033.513-1.238-1.016-1.063zm-3.259 1.467c-.967.4-2.075-.059-2.475-1.025-.4-.967.059-2.075 1.025-2.475.967-.4 2.075.059 2.475 1.025.401.967-.059 2.075-1.025 2.475z"
       class="iconic-cogs-cog iconic-cogs-cog-large iconic-property-fill"
       id="path4600" />
    <path
       d="M16 12.492v-.992l-1-.5v.004c-.048-.145-.104-.284-.171-.419l.421-1.086-.75-.75-1.086.421c-.135-.068-.274-.123-.419-.171h.004l-.508-1h-.992l-.5 1h.004c-.145.048-.284.104-.419.171l-1.086-.421-.75.75.421 1.085c-.068.135-.123.274-.171.419v-.004l-1 .508v.992l1 .5v-.004c.048.145.104.284.171.419l-.421 1.086.75.75 1.086-.421c.135.068.274.123.419.171h-.004l.508 1h.992l.5-1h-.004c.145-.048.284-.104.419-.171l1.086.421.75-.75-.421-1.086c.068-.135.123-.274.171-.419v.004l1-.508zm-4 1.008c-.828 0-1.5-.672-1.5-1.5s.672-1.5 1.5-1.5 1.5.672 1.5 1.5-.672 1.5-1.5 1.5z"
       class="iconic-cogs-cog iconic-cogs-cog-small iconic-property-accent iconic-property-fill"
       id="path4602" />
  </g>
</svg>
