<?xml version="1.0" encoding="UTF-8" standalone="no"?>
<svg
   xmlns:dc="http://purl.org/dc/elements/1.1/"
   xmlns:cc="http://creativecommons.org/ns#"
   xmlns:rdf="http://www.w3.org/1999/02/22-rdf-syntax-ns#"
   xmlns:svg="http://www.w3.org/2000/svg"
   xmlns="http://www.w3.org/2000/svg"
   xmlns:sodipodi="http://sodipodi.sourceforge.net/DTD/sodipodi-0.dtd"
   xmlns:inkscape="http://www.inkscape.org/namespaces/inkscape"
   class="iconic iconic-magnifying-glass"
   width="128"
   height="128"
   viewBox="0 0 128 128"
   id="svg5157"
   version="1.1"
   inkscape:version="0.48.5 r10040"
   sodipodi:docname="magnifying-glass.svg">
  <metadata
     id="metadata5194">
    <rdf:RDF>
      <cc:Work
         rdf:about="">
        <dc:format>image/svg+xml</dc:format>
        <dc:type
           rdf:resource="http://purl.org/dc/dcmitype/StillImage" />
      </cc:Work>
    </rdf:RDF>
  </metadata>
  <sodipodi:namedview
     pagecolor="#ffffff"
     bordercolor="#666666"
     borderopacity="1"
     objecttolerance="10"
     gridtolerance="10"
     guidetolerance="10"
     inkscape:pageopacity="0"
     inkscape:pageshadow="2"
     inkscape:window-width="1918"
     inkscape:window-height="974"
     id="namedview5192"
     showgrid="false"
     inkscape:zoom="1.84375"
     inkscape:cx="-32.271186"
     inkscape:cy="64"
     inkscape:window-x="-4"
     inkscape:window-y="-4"
     inkscape:window-maximized="1"
     inkscape:current-layer="svg5157" />
  <g
     class="iconic-metadata"
     id="g5159">
    <title
       id="title5161">Magnifying Glass</title>
  </g>
  <defs
     id="defs5163">
    <clipPath
       id="iconic-size-lg-magnifying-glass-clip-0">
      <path
         d="M95.707 83.707l-6.707 6.707-1.414-1.414 6.707-6.707-4.293-4.293-12 12 38 38 12-12z"
         id="path5166" />
    </clipPath>
  </defs>
  <g
     class="iconic-magnifying-glass-lg iconic-container iconic-lg"
     data-width="128"
     data-height="128"
     display="inline"
     id="g5168"
     style="stroke:#3c555a;stroke-opacity:1">
    <path
       stroke="#000"
       stroke-width="8"
       class="iconic-magnifying-glass-handle iconic-magnifying-glass-handle-connector iconic-property-stroke"
       d="M85 85l-7.912-7.912"
       fill="none"
       id="path5170"
       style="stroke:#3c555a;stroke-opacity:1" />
    <path
       d="M126.939 117.061l-9.879 9.879c-.586.586-1.536.586-2.121 0l-35.879-35.879c-.586-.586-.586-1.536 0-2.121l9.879-9.879c.586-.586 1.536-.586 2.121 0l35.879 35.879c.586.586.586 1.535 0 2.121z"
       clip-path="url(#iconic-size-lg-magnifying-glass-clip-0)"
       class="iconic-magnifying-glass-handle iconic-property-fill"
       id="path5172"
       style="stroke:#3c555a;stroke-opacity:1" />
    <circle
       stroke="#000"
       stroke-width="8"
       cx="46"
       cy="46"
       r="42"
       class="iconic-magnifying-glass-rim iconic-property-stroke"
       fill="none"
       id="circle5174"
       style="stroke:#3c555a;stroke-opacity:1" />
    <path
       fill="#fff"
       stroke="#000"
       stroke-width="2"
       stroke-linecap="round"
       d="M13 46c0-18.225 14.775-33 33-33"
       class="iconic-magnifying-glass-reflection iconic-property-accent iconic-property-stroke"
       id="path5176"
       style="stroke:#3c555a;stroke-opacity:1" />
  </g>
  <g
     class="iconic-magnifying-glass-md iconic-container iconic-md"
     data-width="32"
     data-height="32"
     display="none"
     transform="scale(4)"
     id="g5178">
    <path
       fill="#fff"
       stroke="#000"
       stroke-width="3"
       class="iconic-magnifying-glass-handle iconic-magnifying-glass-handle-connector iconic-property-stroke"
       d="M19.5 19.582l9.438 9.438"
       id="path5180" />
    <circle
       stroke="#000"
       stroke-width="3"
       cx="12"
       cy="12"
       r="10.5"
       class="iconic-magnifying-glass-rim iconic-property-stroke"
       fill="none"
       id="circle5182"
       d="M 22.5,12 C 22.5,17.79899 17.79899,22.5 12,22.5 6.2010101,22.5 1.5,17.79899 1.5,12 1.5,6.2010101 6.2010101,1.5 12,1.5 17.79899,1.5 22.5,6.2010101 22.5,12 z" />
    <path
       d="M23.646 20.354l-3.293 3.293c-.195.195-.195.512 0 .707l7.293 7.293c.195.195.512.195.707 0l3.293-3.293c.195-.195.195-.512 0-.707l-7.293-7.293c-.195-.195-.512-.195-.707 0z"
       class="iconic-magnifying-glass-handle iconic-property-fill"
       id="path5184" />
  </g>
  <g
     class="iconic-magnifying-glass-sm iconic-container iconic-sm"
     data-width="16"
     data-height="16"
     display="none"
     transform="scale(8)"
     id="g5186">
    <path
       stroke="#000"
       stroke-width="3"
       stroke-linecap="round"
       class="iconic-magnifying-glass-handle iconic-property-stroke"
       d="M11 11l3.5 3.5"
       fill="none"
       id="path5188" />
    <circle
       stroke="#000"
       stroke-width="2"
       cx="6.5"
       cy="6.5"
       r="5.5"
       class="iconic-magnifying-glass-rim iconic-property-stroke"
       fill="none"
       id="circle5190"
       d="M 12,6.5 C 12,9.5375661 9.5375661,12 6.5,12 3.4624339,12 1,9.5375661 1,6.5 1,3.4624339 3.4624339,1 6.5,1 9.5375661,1 12,3.4624339 12,6.5 z" />
  </g>
</svg>
